<?xml version="1.0" standalone="no"?>
<!DOCTYPE svg PUBLIC "-//W3C//DTD SVG 20010904//EN"
 "http://www.w3.org/TR/2001/REC-SVG-20010904/DTD/svg10.dtd">
<svg version="1.0" xmlns="http://www.w3.org/2000/svg"
 width="890.000000pt" height="660.000000pt" viewBox="0 0 890.000000 660.000000"
 preserveAspectRatio="xMidYMid meet">
<metadata>
Created by potrace 1.16, written by Peter Selinger 2001-2019
</metadata>
<g transform="translate(0.000000,660.000000) scale(0.100000,-0.100000)"
fill="#000000" stroke="none">
<path d="M4286 6128 c-7 -61 -16 -2246 -16 -4003 0 -1767 -1 -1669 11 -1630
13 43 18 681 23 2998 3 1513 8 2082 16 2092 8 9 8 15 0 20 -7 4 -9 90 -6 271
3 145 3 271 0 279 -11 27 -23 15 -28 -27z"/>
<path d="M8508 6013 c-3 -82 -5 -425 -7 -763 -1 -338 -3 -628 -6 -645 -2 -16
-6 -399 -9 -850 -4 -451 -9 -892 -12 -980 -2 -88 -11 -396 -20 -685 -8 -289
-19 -658 -24 -820 -10 -299 -13 -607 -6 -599 2 2 6 126 10 274 4 149 11 371
16 495 29 693 46 1434 55 2425 9 1053 15 1545 22 1923 4 264 3 372 -5 372 -7
0 -12 -51 -14 -147z"/>
<path d="M5730 5633 c0 -6 -10 -10 -23 -9 -16 2 -23 -2 -23 -16 0 -10 6 -16
12 -14 13 5 13 -19 -1 -31 -4 -4 -5 -1 0 7 7 12 6 13 -6 2 -12 -11 -12 -14 0
-21 9 -6 10 -11 2 -15 -13 -8 -15 -66 -3 -66 5 0 9 -7 10 -15 1 -8 3 -22 4
-30 1 -8 5 -15 10 -15 11 0 4 36 -13 73 -11 25 -11 30 4 38 9 6 17 20 18 32 0
21 1 21 8 2 6 -14 3 -24 -10 -33 -11 -7 -19 -18 -19 -25 0 -8 3 -8 12 1 7 7
20 12 29 12 10 0 20 8 22 18 3 9 4 5 4 -9 -1 -19 -5 -25 -16 -21 -9 3 -12 1
-7 -6 4 -7 16 -12 26 -12 10 0 22 -5 25 -11 4 -6 0 -9 -11 -7 -12 2 -19 -4
-21 -17 -2 -15 -1 -16 5 -5 4 8 19 15 35 15 33 -1 34 11 2 45 -18 19 -22 29
-14 40 9 13 10 12 6 -2 -6 -19 15 -42 28 -30 5 4 5 1 1 -6 -4 -7 -1 -15 7 -18
9 -3 13 -14 10 -27 -4 -21 -4 -21 10 -4 15 18 16 17 23 -5 7 -24 43 -55 57
-50 5 1 5 -2 2 -8 -5 -8 -14 -5 -27 7 -18 16 -21 16 -32 1 -10 -14 -14 -14
-36 -1 l-25 14 30 -6 30 -6 -25 20 c-24 19 -74 26 -63 8 2 -4 14 -5 26 -1 18
5 20 4 10 -7 -19 -19 -16 -26 12 -33 14 -4 24 -11 22 -17 -1 -7 4 -13 11 -14
7 -2 8 -1 2 2 -8 3 -7 9 1 19 9 11 13 11 25 -1 8 -7 14 -20 14 -27 0 -10 -3
-9 -10 2 -7 11 -10 7 -10 -17 0 -17 -2 -37 -3 -45 -2 -7 -2 -9 1 -4 2 4 9 2
14 -5 6 -10 7 -7 3 10 -6 19 1 45 21 79 3 5 64 -27 64 -34 0 -2 -13 2 -29 10
-26 14 -29 14 -35 -2 -3 -9 -8 -22 -11 -27 -3 -6 6 -12 20 -13 14 -1 25 3 25
8 0 6 -4 10 -10 10 -5 0 -10 5 -10 11 0 8 5 7 15 -1 9 -7 13 -20 10 -28 -3 -8
-1 -20 5 -27 7 -8 5 -12 -5 -12 -8 0 -15 7 -15 15 0 11 -6 8 -20 -8 -11 -13
-20 -24 -20 -24 0 -1 16 -1 35 0 42 2 44 -7 8 -36 -16 -12 -22 -19 -15 -15 6
3 12 1 12 -6 0 -8 4 -8 15 1 8 7 12 16 9 21 -3 5 0 9 6 9 7 0 10 -7 6 -15 -3
-8 3 -20 12 -27 18 -14 22 -42 8 -55 -5 -4 -6 -3 -2 5 4 6 3 12 -3 12 -6 0 -8
8 -5 18 5 14 3 14 -10 -2 -9 -11 -16 -23 -16 -27 0 -4 -18 -6 -41 -3 -27 3
-39 1 -34 -5 3 -7 0 -8 -9 -5 -9 3 -16 11 -16 18 0 7 -3 7 -8 -1 -10 -16 -73
-23 -89 -10 -9 6 -13 5 -13 -3 0 -10 -3 -10 -14 -1 -9 8 -16 8 -20 2 -4 -5
-15 -8 -25 -6 -23 4 -27 -10 -27 -94 1 -63 2 -65 27 -66 14 -1 34 -5 43 -8 9
-4 16 -2 16 4 0 6 5 7 12 3 7 -4 35 -9 63 -11 27 -1 84 -5 125 -8 63 -4 406
-6 463 -3 9 1 17 5 17 9 0 4 3 15 7 25 5 14 3 16 -13 11 -16 -5 -15 -4 3 9 18
13 20 20 12 41 -13 34 -7 38 17 11 10 -12 13 -18 7 -14 -16 9 -17 -10 -2 -20
6 -3 9 -15 6 -25 -3 -11 -1 -19 5 -19 5 0 6 -5 2 -12 -4 -7 -3 -8 4 -4 6 4 8
14 5 23 -4 11 -2 14 8 11 8 -3 13 -11 11 -17 -1 -7 2 -10 8 -6 13 8 -11 46
-25 38 -5 -3 -4 0 3 8 11 12 14 12 21 0 6 -8 11 -9 15 -3 3 6 2 13 -4 17 -5 3
-10 11 -10 18 0 6 6 2 14 -9 10 -13 11 -23 5 -31 -15 -17 15 -69 43 -77 13 -4
133 -4 267 -2 185 4 246 8 252 18 7 11 16 381 11 441 -1 10 2 16 7 13 4 -3 7
5 6 17 -1 12 -3 22 -5 22 -5 0 -6 46 -1 49 3 2 4 31 3 64 l-4 60 -127 1 c-70
1 -139 3 -152 6 -13 2 -158 6 -322 10 -164 4 -311 8 -328 10 -21 3 -28 1 -22
-8 5 -9 3 -9 -8 0 -16 13 -303 22 -315 10 -4 -4 -12 -7 -18 -7 -6 0 -4 5 4 10
9 6 10 10 3 10 -6 0 -15 -4 -18 -10 -9 -14 -58 -13 -73 2 -8 8 -12 9 -12 1z
m697 -201 c-18 -20 -23 -37 -8 -27 6 3 14 -2 19 -12 9 -14 13 -15 26 -4 19 16
22 5 3 -12 -15 -14 -41 -21 -33 -9 2 4 0 14 -5 22 -8 11 -9 3 -6 -27 3 -23 2
-44 -2 -46 -3 -2 -1 -3 5 -1 6 1 17 -2 25 -6 21 -13 41 8 29 30 -7 13 -7 21 0
25 9 6 13 -8 13 -50 0 -30 -3 -36 -13 -30 -6 4 -7 -1 -3 -11 5 -13 10 -10 24
17 10 19 18 28 19 21 0 -7 5 -10 10 -7 6 4 7 11 4 17 -5 7 -2 8 5 3 9 -5 10
-10 2 -18 -6 -6 -11 -17 -11 -25 0 -12 3 -12 18 -1 16 13 16 12 1 -6 -19 -24
-36 -53 -24 -43 4 4 15 2 24 -5 14 -11 15 -10 1 8 -14 19 -14 19 3 6 20 -16
24 -56 5 -46 -7 4 -6 1 3 -7 9 -7 15 -23 14 -35 -1 -13 3 -23 9 -23 6 -1 1 -6
-12 -13 -12 -7 -20 -16 -16 -19 3 -4 -2 -5 -13 -3 -10 1 -27 -5 -37 -14 -11
-9 -16 -11 -13 -5 8 14 -20 27 -28 14 -3 -4 -18 -2 -33 5 -15 8 -39 18 -53 24
-16 6 -28 19 -31 35 -3 15 -1 23 5 19 5 -3 7 0 5 8 -3 8 -10 13 -15 12 -5 -1
-10 4 -10 11 0 7 6 13 13 13 7 0 10 -5 7 -10 -3 -6 -1 -7 5 -3 7 4 6 15 -3 34
-8 15 -12 36 -10 47 2 11 4 24 4 29 1 5 8 3 16 -4 8 -6 20 -10 27 -7 9 4 8 6
-3 6 -19 1 -48 31 -30 31 7 0 9 11 6 29 -3 17 0 33 7 37 7 4 8 3 4 -4 -5 -8 1
-12 15 -12 17 0 20 3 12 11 -9 9 -6 16 10 30 28 24 35 24 14 1z"/>
<path d="M3701 4339 c5 -10 9 -62 9 -117 0 -122 10 -140 85 -148 l51 -6 2 37
c2 28 -2 41 -18 52 -17 12 -20 25 -20 100 0 72 -2 84 -15 79 -8 -3 -15 -1 -15
3 0 5 6 12 13 14 9 4 9 6 0 6 -6 1 -15 -3 -18 -9 -10 -16 -15 -51 -6 -46 4 3
7 -13 8 -35 1 -35 -1 -38 -12 -22 -7 9 -12 22 -11 28 2 5 1 7 -1 2 -3 -4 -8
-5 -12 -3 -4 3 -8 -1 -8 -9 0 -8 5 -13 10 -12 5 1 11 -3 13 -8 2 -6 -5 -11
-17 -11 -19 0 -20 5 -17 52 2 30 -1 50 -6 46 -5 -3 -7 1 -4 10 4 8 0 15 -7 15
-10 0 -11 -5 -4 -18z"/>
<path d="M6908 4325 c-2 -2 -38 -5 -81 -6 -57 -1 -77 -5 -77 -15 0 -8 -4 -14
-10 -14 -5 0 -7 6 -4 14 8 21 -274 19 -299 -2 -16 -14 -17 -14 -12 -1 5 14
-19 16 -205 15 -182 -1 -210 -3 -205 -16 4 -13 3 -13 -7 1 -11 13 -39 15 -170
15 -86 -1 -154 -4 -151 -8 2 -5 15 -8 29 -8 13 0 24 -5 24 -11 0 -8 6 -7 18 2
15 13 16 12 3 -4 -10 -12 -17 -15 -25 -7 -5 5 -19 10 -31 9 -11 0 -14 -3 -8
-6 10 -3 9 -9 -3 -21 -10 -10 -13 -17 -6 -20 8 -2 8 -11 1 -29 -8 -22 -7 -24
8 -19 16 5 16 5 2 -6 -19 -16 -19 -19 -22 -261 l-3 -198 61 5 c91 9 170 15
280 22 128 8 130 9 130 22 0 6 4 14 8 19 5 4 7 1 5 -7 -6 -26 52 -21 64 6 6
13 20 25 32 27 12 2 9 3 -6 2 -16 -1 -28 1 -28 5 0 3 -9 6 -21 7 -12 1 -18 -3
-16 -10 3 -7 10 -11 16 -10 16 4 14 -12 -3 -26 -11 -9 -16 -9 -22 0 -5 8 -3 9
6 4 8 -5 11 -3 8 6 -3 8 -11 13 -17 11 -9 -2 -9 3 -1 19 7 12 18 18 26 15 17
-7 18 6 2 22 -9 9 -9 12 0 12 7 0 12 -4 12 -9 0 -5 9 -7 20 -4 11 3 20 12 20
19 0 17 -17 19 -22 2 -5 -15 -28 -1 -28 18 0 9 5 12 11 8 8 -4 9 1 5 17 l-6
24 11 -22 c9 -18 19 -22 45 -20 35 2 44 11 22 21 -7 3 -2 3 12 0 32 -8 34 -10
27 -27 -3 -8 -16 -13 -30 -12 -18 2 -27 -3 -30 -17 -5 -18 -4 -18 18 -4 20 13
24 13 29 1 3 -8 12 -12 21 -9 11 5 14 2 9 -10 -3 -9 -11 -13 -18 -9 -6 4 -5
-1 3 -10 14 -17 26 -24 17 -9 -2 4 -1 14 5 22 6 11 9 11 9 2 0 -7 12 -17 26
-22 17 -7 24 -15 20 -25 -7 -20 12 -29 30 -14 21 17 42 20 51 7 3 -6 1 -8 -4
-5 -6 4 -16 0 -22 -7 -14 -16 2 -32 20 -20 6 3 62 6 125 5 88 -2 114 1 114 11
0 8 3 9 8 3 6 -9 22 -11 47 -5 6 1 13 2 18 1 4 0 7 6 7 15 0 8 -4 13 -9 9 -5
-3 -12 -1 -16 5 -3 5 -2 10 3 10 8 0 32 51 32 67 0 2 -10 -2 -22 -8 -20 -10
-21 -9 -8 2 8 8 21 21 29 29 11 13 13 10 8 -20 -3 -19 -8 -45 -11 -57 -3 -16
0 -23 9 -23 9 0 12 6 9 15 -4 8 -2 15 2 15 5 0 8 21 8 47 -2 54 4 72 17 52 6
-9 9 -10 9 -2 0 14 59 15 76 1 7 -5 9 -18 6 -30 -3 -14 -1 -19 6 -15 11 8 11
-11 -1 -29 -3 -6 -3 -14 0 -18 4 -4 7 -23 7 -44 1 -44 16 -50 92 -33 47 11 52
15 57 44 10 65 8 477 -3 497 -9 18 -21 20 -99 19 -49 0 -91 -2 -93 -4z"/>
<path d="M7260 3268 c-262 -211 -672 -377 -996 -404 -72 -6 -88 -4 -173 25
-194 65 -443 209 -613 355 -72 62 -98 77 -98 58 0 -4 17 -24 38 -43 114 -109
345 -264 496 -334 50 -23 102 -47 116 -54 21 -9 11 -10 -55 -6 -105 7 -228 29
-343 60 -51 14 -100 25 -108 25 -23 0 -16 -27 10 -34 18 -4 22 -11 19 -29 -4
-20 5 -27 74 -59 269 -125 463 -164 766 -155 206 6 306 22 481 77 50 15 138
38 196 50 155 32 250 61 250 77 0 17 -23 16 -84 -2 -74 -23 -77 -18 -11 21
105 63 109 65 95 74 -8 5 -52 -13 -114 -46 -163 -86 -234 -111 -348 -125 -116
-13 -352 -8 -468 12 -86 14 -114 29 -53 29 59 0 293 61 404 105 119 48 270
123 370 185 85 53 226 157 248 184 12 14 11 16 -5 15 -11 0 -53 -27 -94 -61z
m-1610 -388 c76 -23 287 -51 407 -55 86 -3 166 -13 243 -30 87 -20 157 -27
288 -32 95 -3 171 -8 168 -10 -14 -15 -224 -45 -347 -50 -275 -11 -547 46
-764 160 -53 28 -52 33 5 17z"/>
<path d="M6740 2143 c-51 -34 -61 -46 -48 -55 10 -6 10 -8 1 -8 -7 0 -13 -10
-13 -22 0 -17 3 -19 9 -9 6 9 11 10 15 2 4 -6 11 -9 15 -7 4 3 13 1 21 -4 8
-5 22 -4 33 2 17 8 18 7 13 -14 -3 -12 -3 -17 0 -10 12 25 22 1 17 -40 -5 -32
-3 -39 7 -33 10 6 11 2 6 -19 -3 -14 -3 -26 1 -27 5 0 19 -3 32 -5 l25 -4 -22
23 c-12 13 -22 31 -22 40 0 9 -4 17 -9 17 -5 0 -7 9 -4 20 3 11 9 17 14 14 5
-3 9 4 9 15 0 14 5 19 15 15 21 -9 19 -32 -5 -39 -22 -7 -26 -20 -10 -30 6 -4
8 -11 5 -16 -8 -11 -8 -11 40 5 30 11 36 16 23 21 -9 4 -22 4 -28 0 -5 -3 -10
-1 -10 4 0 6 5 11 11 11 6 0 8 9 4 20 -5 15 -3 18 9 14 20 -8 21 3 1 22 -15
16 -11 40 8 47 7 2 5 3 -3 2 -8 -2 -23 -6 -33 -10 -10 -4 -17 -4 -16 1 5 28
-3 39 -31 41 -35 3 -63 -33 -39 -48 19 -12 29 -11 29 2 0 5 -4 7 -10 4 -5 -3
-10 -1 -10 4 0 6 9 11 20 11 17 0 20 -7 20 -37 -1 -36 -2 -37 -15 -19 -8 11
-15 17 -15 13 0 -4 -9 -3 -21 3 -13 7 -19 19 -17 33 2 13 -2 21 -9 20 -7 -2
-13 2 -13 7 0 6 7 10 16 10 8 0 13 4 9 9 -3 5 3 12 12 14 12 3 13 5 3 5 -8 1
-26 -6 -40 -15z"/>
<path d="M6762 1936 c-13 -7 -21 -18 -19 -26 3 -10 -3 -16 -15 -17 -11 -1 -16
3 -12 9 4 6 1 9 -7 6 -8 -3 -14 -16 -14 -30 0 -15 -3 -30 -7 -34 -4 -4 0 -13
10 -20 10 -8 12 -13 5 -14 -18 0 -16 -25 3 -41 14 -11 14 -13 0 -21 -9 -5 -16
-15 -16 -22 0 -16 31 -16 42 -1 4 6 8 2 8 -7 0 -11 8 -18 20 -18 12 0 20 -7
20 -16 0 -10 -6 -14 -15 -10 -8 3 -15 1 -15 -5 0 -7 10 -9 24 -5 15 4 26 1 28
-6 2 -6 10 -8 16 -4 9 5 9 13 2 27 -8 14 -7 19 3 19 10 0 13 11 10 40 -2 24 0
40 7 40 5 0 10 9 10 21 0 12 -4 18 -11 13 -6 -3 -16 0 -21 7 -6 10 -7 7 -3 -9
4 -13 1 -29 -5 -37 -10 -12 -14 -12 -26 0 -18 18 -18 29 0 22 9 -4 16 3 19 19
4 20 1 23 -14 19 -27 -9 -43 3 -28 21 10 12 8 13 -7 8 -18 -6 -18 -6 0 8 18
14 22 14 39 -8 21 -28 52 -31 61 -8 4 12 2 15 -9 10 -9 -3 -15 0 -15 9 0 16
-26 21 -32 6 -1 -5 -11 2 -21 15 -17 23 -17 24 3 24 11 0 20 4 20 9 0 16 -13
18 -38 7z"/>
<path d="M1650 1789 c0 -50 3 -57 23 -63 36 -10 37 -8 37 50 0 34 4 53 10 49
6 -3 10 -28 10 -54 0 -46 1 -49 33 -56 54 -14 120 -14 141 0 12 7 34 11 49 10
24 -2 26 0 15 11 -8 8 -26 15 -41 16 -19 2 -29 10 -36 29 -5 15 -6 30 -3 34 4
4 3 6 -3 4 -5 -1 -26 1 -45 5 -19 3 -70 10 -112 14 l-78 8 0 -57z"/>
<path d="M2010 1795 c0 -8 7 -15 15 -15 9 0 12 -6 8 -16 -5 -13 -7 -13 -14 -2
-7 11 -11 -60 -11 -187 0 -43 3 -55 17 -55 8 0 15 -5 15 -10 0 -6 -8 -10 -17
-8 -12 2 -18 -3 -18 -17 0 -11 -8 -21 -18 -23 -17 -3 -16 -5 4 -23 23 -20 19
-24 -31 -32 -25 -4 -25 -4 2 -6 26 -1 51 -21 27 -21 -7 0 -3 -11 10 -24 14
-14 21 -33 19 -47 -3 -20 -11 -25 -58 -32 -30 -5 -81 -7 -112 -5 l-58 4 0 -43
c0 -28 4 -43 13 -43 6 0 98 -14 202 -30 105 -16 198 -30 208 -30 19 0 22 25
11 93 -5 30 -11 37 -29 37 -16 0 -25 8 -29 27 -8 31 6 43 49 41 l30 -1 -33 -4
c-18 -2 -30 -9 -27 -14 9 -14 36 -11 56 7 15 14 19 13 42 -10 15 -14 33 -26
41 -26 8 0 16 -8 19 -17 2 -10 4 1 4 24 1 46 0 46 -94 59 -29 3 -53 11 -53 17
0 9 73 4 128 -10 l22 -5 -2 208 -3 209 -130 17 c-71 9 -147 19 -167 22 -30 5
-38 3 -38 -9z"/>
<path d="M1327 1759 c-29 -17 -47 -72 -47 -144 0 -48 -3 -65 -14 -65 -21 0
-38 -26 -58 -88 -32 -98 -39 -111 -54 -105 -8 3 -14 -1 -14 -10 0 -9 8 -17 18
-20 9 -2 -23 -2 -73 1 -49 3 -87 2 -84 -2 3 -3 50 -8 105 -11 54 -3 130 -8
168 -11 43 -4 66 -3 63 3 -4 6 -20 10 -37 11 -35 1 -60 17 -60 39 0 8 -4 12
-9 8 -11 -6 -36 33 -27 42 3 3 23 -6 43 -20 21 -14 64 -32 95 -41 49 -14 62
-23 88 -60 31 -46 38 -84 19 -103 -16 -16 -39 -5 -39 18 0 24 -31 89 -43 89
-5 0 -5 -5 1 -12 5 -7 11 -56 12 -108 2 -103 7 -181 12 -184 2 -1 27 -7 55
-12 49 -10 53 -9 60 10 4 12 8 62 9 111 2 147 1 143 33 159 l29 15 -33 96
c-18 53 -39 103 -46 111 -22 26 -47 35 -66 23 -30 -18 -73 4 -73 38 0 15 -9
36 -19 47 -11 12 -22 33 -26 47 -6 23 -3 28 22 36 38 12 83 5 83 -13 0 -8 5
-14 10 -14 6 0 8 11 4 28 -22 90 -57 120 -107 91z"/>
<path d="M849 1388 c-1 -7 -1 -16 0 -20 0 -5 -8 -17 -19 -28 -23 -23 -25 -52
-9 -116 8 -32 8 -56 1 -87 -7 -26 -8 -61 -3 -92 5 -28 9 -41 10 -30 2 19 3 18
11 -2 7 -17 18 -23 40 -23 16 0 30 4 30 9 0 10 19 9 38 -2 9 -6 12 2 11 30 0
35 -17 93 -18 66 -1 -7 -8 -10 -16 -7 -11 4 -12 11 -5 24 7 14 5 19 -8 22 -11
3 -23 23 -31 49 -7 24 -17 49 -23 56 -6 7 -5 14 2 18 5 3 10 12 10 18 0 7 -4
6 -10 -3 -10 -15 -5 74 6 113 3 9 1 17 -5 17 -6 0 -12 -6 -12 -12z"/>
<path d="M3880 1391 c0 -8 -3 -11 -6 -8 -4 3 -15 2 -25 -4 -13 -6 -19 -6 -19
1 0 5 -7 10 -16 10 -9 0 -12 -5 -8 -12 6 -10 4 -10 -8 0 -20 16 -128 13 -128
-4 0 -17 -55 -22 -82 -8 -32 18 -35 17 -42 -10 -5 -20 -13 -25 -44 -28 -29 -2
-36 -7 -34 -21 5 -28 -17 -47 -54 -47 -19 0 -34 -4 -34 -10 0 -5 5 -10 11 -10
8 0 8 -5 -1 -15 -7 -8 -27 -15 -44 -15 -23 0 -27 -3 -16 -10 25 -16 -4 -36
-32 -23 -18 8 -26 7 -37 -4 -11 -12 -11 -14 0 -12 27 3 40 -1 33 -12 -3 -6
-17 -9 -30 -6 -14 2 -27 0 -30 -4 -3 -5 2 -9 12 -9 13 0 14 -3 5 -14 -6 -7
-23 -12 -39 -10 -15 2 -19 1 -9 -2 14 -5 16 -9 6 -20 -9 -11 -15 -12 -25 -3
-11 9 -14 8 -14 -3 0 -22 37 -51 56 -44 11 4 15 2 11 -7 -8 -22 20 -50 46 -45
19 4 23 1 20 -12 -6 -22 22 -44 47 -37 16 4 20 2 15 -12 -7 -23 19 -45 45 -38
15 4 20 0 20 -13 0 -20 22 -32 44 -24 8 3 16 -3 19 -15 3 -15 13 -21 31 -21
16 0 26 -6 26 -14 0 -8 9 -18 21 -21 12 -4 30 -16 42 -28 l20 -20 19 23 c11
13 27 25 36 26 9 2 22 10 28 18 6 9 18 16 27 16 9 0 22 8 29 18 13 17 53 28
42 11 -3 -5 2 -9 11 -9 9 0 14 -4 11 -8 -4 -7 17 -12 62 -15 6 0 12 -7 12 -16
0 -11 3 -10 15 5 8 10 15 15 15 9 0 -5 5 -3 10 5 7 10 10 11 10 2 0 -7 12 2
28 18 15 17 36 32 46 34 11 1 22 9 24 17 3 11 1 11 -7 -1 -6 -8 -11 -10 -11
-5 0 14 37 45 45 37 3 -4 3 1 -1 11 -3 10 -1 17 6 17 6 0 8 5 5 10 -3 6 -1 10
5 10 6 0 8 5 5 10 -3 6 -1 10 5 10 6 0 8 5 5 10 -3 6 -2 10 4 10 5 0 12 14 16
30 4 17 11 30 16 30 6 0 8 4 4 9 -3 5 0 15 7 23 13 13 20 70 8 63 -9 -6 -61
41 -53 49 3 3 -1 6 -10 6 -9 0 -17 4 -17 9 0 16 -93 111 -109 111 -14 0 -14 2
-1 10 11 7 11 10 2 10 -7 0 -10 5 -6 12 4 7 3 8 -4 4 -6 -4 -20 2 -32 14 -11
11 -20 16 -20 10 0 -12 -22 -9 -32 5 -5 6 -8 4 -8 -4z"/>
<path d="M390 1053 c1 -365 6 -423 32 -423 18 0 18 11 16 243 -4 413 -6 451
-29 465 -19 12 -20 8 -19 -285z"/>
<path d="M1095 1270 c-3 -5 -13 -6 -22 -3 -10 4 -14 2 -10 -4 4 -6 -10 -9 -33
-9 -27 1 -40 -3 -40 -12 0 -7 4 -10 10 -7 5 3 18 1 28 -4 13 -7 22 -7 29 0 8
8 13 7 18 0 3 -6 3 -11 -2 -10 -20 4 -27 -2 -13 -12 13 -9 12 -10 -2 -5 -10 3
-20 0 -24 -6 -5 -7 -3 -8 5 -4 8 5 14 0 18 -13 6 -23 48 -30 56 -8 7 18 117
10 117 -9 0 -9 11 -14 30 -14 19 0 30 5 30 14 0 17 -24 38 -33 29 -4 -3 -7 -1
-7 5 0 17 35 15 50 -3 9 -10 11 -35 6 -80 -6 -64 -6 -65 19 -65 25 0 25 1 25
88 0 73 -3 92 -18 105 -22 20 -48 22 -55 5 -3 -8 -6 -6 -6 5 -1 23 -81 25 -81
2 0 -10 -11 -15 -37 -16 -26 -1 -30 -3 -13 -6 14 -2 36 -6 49 -9 l24 -5 -21
-15 c-13 -9 -31 -12 -47 -8 -25 6 -29 17 -25 62 1 22 -14 30 -25 12z"/>
<path d="M1660 1135 c0 -25 3 -45 8 -46 4 0 30 -3 57 -5 28 -3 95 -11 150 -19
73 -10 102 -11 107 -3 11 19 38 17 48 -2 6 -11 26 -21 49 -25 l40 -7 6 -56
c17 -161 14 -151 50 -158 18 -3 48 -7 66 -7 l34 -2 3 53 c2 28 7 52 13 52 5 0
9 38 9 84 l0 83 28 -5 c15 -2 25 -2 22 1 -13 13 -226 47 -585 93 -22 3 -55 7
-72 10 l-33 5 0 -46z"/>
</g>
</svg>
